{"title":"Avril Lavigne Smile 720p^^TAKRIAN^^DIRTYHD^^","uid":7007917,"size":113670859,"categoryP":"video","categoryS":"music_videos","magnet":"?xt=urn:btih:3e524bf33dfe002eb535d2cb302fff9661f484c3&amp;dn=Avril+Lavigne+Smile+720p%5E%5ETAKRIAN%5E%5EDIRTYHD%5E%5E&amp;tr=udp%3A%2F%2Ftracker.openbittorrent.com%3A80&amp;tr=udp%3A%2F%2Fopen.demonii.com%3A1337&amp;tr=udp%3A%2F%2Ftracker.coppersurfer.tk%3A6969&amp;tr=udp%3A%2F%2Fexodus.desync.com%3A6969","seeders":0,"leechers":1,"uploader":"SomethingIsHere","files":3,"time":1328339010,"description":"\n[url=http://www.imdb.com/name/nm1245099/][img]http://img545.imageshack.us/img545/1896/imdb1t.png[/img][/url]\n[color=red]StoryLine[/color]\n[color=green]oon after her return from a business trip to Hong Kong, Beth Emhoff dies from what is a flu or some other type of \n\ninfection. Her young son dies later the same day. Her husband Mitch however seems immune. Thus begins the spread of a deadly \n\ninfection. For doctors and administrators at the U.S. Centers for Disease Control, several days pass before anyone realizes the \n\nextent or gravity of this new infection. They must first identify the type of virus in question and then find a means of \n\ncombating it, a process that will likely take several months. As the contagion spreads to millions of people worldwide, societal \n\norder begins to break down as people panic.[/color]\n[img]http://urbanhairstyle.net/wp-content/uploads/2011/09/26890-avril-lavigne-green-hair.jpg[/img]\n[img]http://img402.imageshack.us/img402/71/dirtyhd.png[/img]\nFormat                           : Windows Media\nFile size                        : 107 MiB\nDuration                         : 3mn 35s\nOverall bit rate mode            : Constant\nOverall bit rate                 : 4 177 Kbps\nMaximum Overall bit rate         : 4 162 Kbps\nEncoded date                     : UTC 2011-06-24 02:58:59.932\n\nVideo\nID                               : 1\nFormat                           : VC-1\nFormat profile                   : MP@HL\nCodec ID                         : WMV3\nCodec ID/Info                    : Windows Media Video 9\nCodec ID/Hint                    : WMV3\nDescription of the codec         : Windows Media Video 9 - Professional\nDuration                         : 3mn 35s\nBit rate mode                    : Constant\nBit rate                         : 4 000 Kbps\nWidth                            : 1 280 pixels\nHeight                           : 720 pixels\nDisplay aspect ratio             : 16:9\nFrame rate                       : 24.000 fps\nBit depth                        : 8 bits\nScan type                        : Progressive\nCompression mode                 : Lossy\nBits/(Pixel*Frame)               : 0.181\nStream size                      : 103 MiB (96%)\nLanguage                         : English (US)\n\nAudio\nID                               : 2\nFormat                           : WMA\nFormat version                   : Version 2\nCodec ID                         : 161\nCodec ID/Info                    : Windows Media Audio\nDescription of the codec         : Windows Media Audio 9.2 - 128 kbps, 44 kHz, stereo 1-pass CBR\nDuration                         : 3mn 35s\nBit rate mode                    : Constant\nBit rate                         : 128 Kbps\nChannel(s)                       : 2 channels\nSampling rate                    : 44.1 KHz\nBit depth                        : 16 bits\nStream size                      : 3.29 MiB (3%)\nLanguage                         : English (US)\n\n\n\n","torrent":{"xt":"urn:btih:3e524bf33dfe002eb535d2cb302fff9661f484c3","amp;dn":"Avril+Lavigne+Smile+720p%5E%5ETAKRIAN%5E%5EDIRTYHD%5E%5E","amp;tr":["udp%3A%2F%2Ftracker.openbittorrent.com%3A80","udp%3A%2F%2Fopen.demonii.com%3A1337","udp%3A%2F%2Ftracker.coppersurfer.tk%3A6969","udp%3A%2F%2Fexodus.desync.com%3A6969"],"infoHash":"3e524bf33dfe002eb535d2cb302fff9661f484c3","infoHashBuffer":{"type":"Buffer","data":[62,82,75,243,61,254,0,46,181,53,210,203,48,47,255,150,97,244,132,195]},"announce":[],"urlList":[]}}